<svg width="195" height="195" viewBox="0 0 195 195" fill="none" xmlns="http://www.w3.org/2000/svg">
<path d="M0 0H194.053V194.053H0V0Z" fill="black"/>
<path d="M52.0673 102.522L48.9367 102.522L48.9367 104.694L42.0021 104.694L42.0021 94.6288L52.0674 94.6288L52.0673 102.522ZM52.0673 134.099L42.0021 134.099L42.0021 118.313L52.0673 118.313L52.0673 134.099ZM52.0673 157.782L42.0021 157.782L42.0021 147.717L48.9367 147.717L48.9367 149.889L52.0673 149.889L52.0673 157.782ZM76.6899 104.694L62.8108 104.694L62.8108 94.6288L76.6899 94.6288L76.6899 104.694ZM76.6899 157.782L62.8108 157.782L62.8108 147.717L76.6899 147.717L76.6899 157.782ZM104.438 104.694L90.564 104.694L90.564 94.6288L104.438 94.6288L104.438 104.694ZM104.438 157.782L90.564 157.782L90.564 147.717L104.438 147.717L104.438 157.782ZM132.186 104.694L118.312 104.694L118.312 94.6288L132.186 94.6288L132.186 104.694ZM132.186 157.782L118.312 157.782L118.312 147.717L132.186 147.717L132.186 157.782ZM153 104.694L146.06 104.694L146.06 102.522L142.935 102.522L142.935 94.6288L153 94.6288L153 104.694ZM153 134.099L142.935 134.099L142.935 118.313L153 118.313L153 134.099ZM153 157.782L142.935 157.782L142.935 149.889L146.06 149.889L146.06 147.717L153 147.717L153 157.782Z" fill="white"/>
<path d="M153 37L153 75.4192L42 75.4192L42 37L153 37Z" fill="white"/>
</svg>
